<svg width="189" height="20" viewBox="0 0 189 20" fill="none" xmlns="http://www.w3.org/2000/svg">

    <g id="brandLogo">
        <path d="M1.736 15C1.484 15 1.262 14.91 1.07 14.73C0.89 14.55 0.8 14.328 0.8 14.064V1.878C0.8 1.614 0.89 1.392 1.07 1.212C1.262 1.032 1.484 0.942 1.736 0.942C2 0.942 2.222 1.032 2.402 1.212C2.582 1.392 2.672 1.614 2.672 1.878V7.278L8.63 1.32C8.774 1.176 8.906 1.08 9.026 1.032C9.146 0.972 9.272 0.942 9.404 0.942C9.704 0.942 9.92 1.032 10.052 1.212C10.184 1.392 10.232 1.608 10.196 1.86C10.16 2.1 10.046 2.322 9.854 2.526L5.264 7.134L9.944 13.506C10.088 13.71 10.148 13.932 10.124 14.172C10.1 14.4 10.016 14.598 9.872 14.766C9.728 14.922 9.536 15 9.296 15C8.96 15 8.702 14.868 8.522 14.604L3.968 8.43L2.672 9.726V14.064C2.672 14.328 2.582 14.55 2.402 14.73C2.222 14.91 2 15 1.736 15ZM15.6576 15.072C14.7816 15.072 13.9956 14.856 13.2996 14.424C12.6036 13.98 12.0516 13.386 11.6436 12.642C11.2476 11.886 11.0496 11.034 11.0496 10.086C11.0496 9.138 11.2656 8.286 11.6976 7.53C12.1416 6.774 12.7356 6.18 13.4796 5.748C14.2356 5.304 15.0816 5.082 16.0176 5.082C16.9536 5.082 17.7936 5.304 18.5376 5.748C19.2816 6.18 19.8696 6.774 20.3016 7.53C20.7456 8.286 20.9676 9.138 20.9676 10.086H20.2656C20.2656 11.034 20.0616 11.886 19.6536 12.642C19.2576 13.386 18.7116 13.98 18.0156 14.424C17.3196 14.856 16.5336 15.072 15.6576 15.072ZM16.0176 13.452C16.6296 13.452 17.1756 13.308 17.6556 13.02C18.1356 12.72 18.5136 12.318 18.7896 11.814C19.0656 11.298 19.2036 10.722 19.2036 10.086C19.2036 9.438 19.0656 8.862 18.7896 8.358C18.5136 7.842 18.1356 7.44 17.6556 7.152C17.1756 6.852 16.6296 6.702 16.0176 6.702C15.4176 6.702 14.8716 6.852 14.3796 7.152C13.8996 7.44 13.5156 7.842 13.2276 8.358C12.9516 8.862 12.8136 9.438 12.8136 10.086C12.8136 10.722 12.9516 11.298 13.2276 11.814C13.5156 12.318 13.8996 12.72 14.3796 13.02C14.8716 13.308 15.4176 13.452 16.0176 13.452ZM20.0496 15.018C19.7856 15.018 19.5636 14.934 19.3836 14.766C19.2156 14.586 19.1316 14.364 19.1316 14.1V11.346L19.4736 9.438L20.9676 10.086V14.1C20.9676 14.364 20.8776 14.586 20.6976 14.766C20.5296 14.934 20.3136 15.018 20.0496 15.018ZM24.6361 14.658L23.4121 13.578L29.5321 5.496L30.7381 6.576L24.6361 14.658ZM24.0961 15C23.5321 15 23.2501 14.718 23.2501 14.154C23.2501 13.59 23.5321 13.308 24.0961 13.308H30.2341C30.7981 13.308 31.0801 13.59 31.0801 14.154C31.0801 14.718 30.7981 15 30.2341 15H24.0961ZM23.9161 6.846C23.3521 6.846 23.0701 6.564 23.0701 6C23.0701 5.436 23.3521 5.154 23.9161 5.154H30.0541C30.6181 5.154 30.9001 5.436 30.9001 6C30.9001 6.564 30.6181 6.846 30.0541 6.846H23.9161ZM35.1848 19.32C35.0648 19.32 34.9208 19.284 34.7528 19.212C34.2248 18.972 34.0808 18.594 34.3208 18.078L39.8108 5.676C40.0508 5.172 40.4288 5.028 40.9448 5.244C41.4848 5.472 41.6348 5.85 41.3948 6.378L35.8868 18.762C35.7428 19.134 35.5088 19.32 35.1848 19.32ZM37.3088 14.604C37.0808 14.7 36.8648 14.712 36.6608 14.64C36.4688 14.556 36.3128 14.4 36.1928 14.172L32.0708 6.342C31.9508 6.114 31.9328 5.898 32.0168 5.694C32.1128 5.478 32.2748 5.322 32.5028 5.226C32.7308 5.13 32.9468 5.124 33.1508 5.208C33.3548 5.28 33.5108 5.43 33.6188 5.658L37.5608 13.488C37.6808 13.716 37.7228 13.938 37.6868 14.154C37.6628 14.358 37.5368 14.508 37.3088 14.604ZM47.2639 15.09C46.4359 15.09 45.6919 14.916 45.0319 14.568C44.3839 14.208 43.8679 13.686 43.4839 13.002C43.1119 12.318 42.9259 11.478 42.9259 10.482V6.054C42.9259 5.79 43.0099 5.574 43.1779 5.406C43.3579 5.226 43.5799 5.136 43.8439 5.136C44.1079 5.136 44.3239 5.226 44.4919 5.406C44.6719 5.574 44.7619 5.79 44.7619 6.054V10.482C44.7619 11.154 44.8879 11.712 45.1399 12.156C45.3919 12.588 45.7339 12.912 46.1659 13.128C46.5979 13.332 47.0839 13.434 47.6239 13.434C48.1399 13.434 48.5959 13.332 48.9919 13.128C49.3999 12.924 49.7239 12.648 49.9639 12.3C50.2039 11.952 50.3239 11.562 50.3239 11.13H51.4579C51.4579 11.874 51.2719 12.546 50.8999 13.146C50.5399 13.746 50.0419 14.22 49.4059 14.568C48.7819 14.916 48.0679 15.09 47.2639 15.09ZM51.2419 15C50.9779 15 50.7559 14.916 50.5759 14.748C50.4079 14.568 50.3239 14.346 50.3239 14.082V6.054C50.3239 5.778 50.4079 5.556 50.5759 5.388C50.7559 5.22 50.9779 5.136 51.2419 5.136C51.5179 5.136 51.7399 5.22 51.9079 5.388C52.0759 5.556 52.1599 5.778 52.1599 6.054V14.082C52.1599 14.346 52.0759 14.568 51.9079 14.748C51.7399 14.916 51.5179 15 51.2419 15ZM58.9754 15C58.3754 15 57.8354 14.85 57.3554 14.55C56.8754 14.238 56.4974 13.818 56.2214 13.29C55.9454 12.762 55.8074 12.168 55.8074 11.508V2.922C55.8074 2.658 55.8914 2.442 56.0594 2.274C56.2274 2.106 56.4434 2.022 56.7074 2.022C56.9714 2.022 57.1874 2.106 57.3554 2.274C57.5234 2.442 57.6074 2.658 57.6074 2.922V11.508C57.6074 11.988 57.7394 12.39 58.0034 12.714C58.2674 13.038 58.5914 13.2 58.9754 13.2H59.5874C59.8034 13.2 59.9834 13.284 60.1274 13.452C60.2834 13.62 60.3614 13.836 60.3614 14.1C60.3614 14.364 60.2594 14.58 60.0554 14.748C59.8634 14.916 59.6114 15 59.2994 15H58.9754ZM54.9794 7.062C54.7274 7.062 54.5234 6.99 54.3674 6.846C54.2114 6.702 54.1334 6.522 54.1334 6.306C54.1334 6.066 54.2114 5.874 54.3674 5.73C54.5234 5.586 54.7274 5.514 54.9794 5.514H59.1374C59.3894 5.514 59.5934 5.586 59.7494 5.73C59.9054 5.874 59.9834 6.066 59.9834 6.306C59.9834 6.522 59.9054 6.702 59.7494 6.846C59.5934 6.99 59.3894 7.062 59.1374 7.062H54.9794ZM67.082 15.072C66.122 15.072 65.264 14.856 64.508 14.424C63.764 13.98 63.176 13.386 62.744 12.642C62.324 11.886 62.114 11.034 62.114 10.086C62.114 9.114 62.324 8.25 62.744 7.494C63.164 6.738 63.74 6.15 64.472 5.73C65.204 5.298 66.044 5.082 66.992 5.082C67.7 5.082 68.348 5.22 68.936 5.496C69.524 5.76 70.052 6.162 70.52 6.702C70.688 6.894 70.748 7.092 70.7 7.296C70.652 7.5 70.52 7.68 70.304 7.836C70.136 7.956 69.95 7.998 69.746 7.962C69.542 7.914 69.356 7.806 69.188 7.638C68.6 7.014 67.868 6.702 66.992 6.702C66.38 6.702 65.84 6.846 65.372 7.134C64.904 7.41 64.538 7.8 64.274 8.304C64.01 8.808 63.878 9.402 63.878 10.086C63.878 10.734 64.01 11.31 64.274 11.814C64.55 12.318 64.928 12.72 65.408 13.02C65.888 13.308 66.446 13.452 67.082 13.452C67.502 13.452 67.868 13.404 68.18 13.308C68.504 13.2 68.798 13.038 69.062 12.822C69.254 12.666 69.452 12.582 69.656 12.57C69.86 12.546 70.04 12.6 70.196 12.732C70.4 12.9 70.514 13.092 70.538 13.308C70.562 13.512 70.49 13.698 70.322 13.866C69.458 14.67 68.378 15.072 67.082 15.072ZM74.3466 11.418C74.0826 11.418 73.8606 11.334 73.6806 11.166C73.5126 10.986 73.4286 10.764 73.4286 10.5V1.86C73.4286 1.584 73.5126 1.362 73.6806 1.194C73.8606 1.026 74.0826 0.942 74.3466 0.942C74.6226 0.942 74.8446 1.026 75.0126 1.194C75.1806 1.362 75.2646 1.584 75.2646 1.86V10.5C75.2646 10.764 75.1806 10.986 75.0126 11.166C74.8446 11.334 74.6226 11.418 74.3466 11.418ZM81.7446 15.018C81.4806 15.018 81.2586 14.934 81.0786 14.766C80.9106 14.586 80.8266 14.364 80.8266 14.1V9.672C80.8266 8.988 80.7006 8.43 80.4486 7.998C80.1966 7.566 79.8546 7.248 79.4226 7.044C79.0026 6.828 78.5166 6.72 77.9646 6.72C77.4606 6.72 77.0046 6.822 76.5966 7.026C76.1886 7.23 75.8646 7.506 75.6246 7.854C75.3846 8.19 75.2646 8.58 75.2646 9.024H74.1306C74.1306 8.268 74.3106 7.596 74.6706 7.008C75.0426 6.408 75.5466 5.934 76.1826 5.586C76.8186 5.238 77.5326 5.064 78.3246 5.064C79.1526 5.064 79.8906 5.244 80.5386 5.604C81.1986 5.952 81.7146 6.468 82.0866 7.152C82.4706 7.836 82.6626 8.676 82.6626 9.672V14.1C82.6626 14.364 82.5726 14.586 82.3926 14.766C82.2246 14.934 82.0086 15.018 81.7446 15.018ZM74.3466 15.018C74.0826 15.018 73.8606 14.934 73.6806 14.766C73.5126 14.586 73.4286 14.364 73.4286 14.1V6.072C73.4286 5.796 73.5126 5.574 73.6806 5.406C73.8606 5.238 74.0826 5.154 74.3466 5.154C74.6226 5.154 74.8446 5.238 75.0126 5.406C75.1806 5.574 75.2646 5.796 75.2646 6.072V14.1C75.2646 14.364 75.1806 14.586 75.0126 14.766C74.8446 14.934 74.6226 15.018 74.3466 15.018ZM86.8137 15C86.5497 15 86.3277 14.916 86.1477 14.748C85.9797 14.568 85.8957 14.346 85.8957 14.082V6.072C85.8957 5.796 85.9797 5.574 86.1477 5.406C86.3277 5.238 86.5497 5.154 86.8137 5.154C87.0897 5.154 87.3117 5.238 87.4797 5.406C87.6477 5.574 87.7317 5.796 87.7317 6.072V14.082C87.7317 14.346 87.6477 14.568 87.4797 14.748C87.3117 14.916 87.0897 15 86.8137 15ZM86.8137 3.552C86.4897 3.552 86.2077 3.438 85.9677 3.21C85.7397 2.97 85.6257 2.688 85.6257 2.364C85.6257 2.04 85.7397 1.764 85.9677 1.536C86.2077 1.296 86.4897 1.176 86.8137 1.176C87.1377 1.176 87.4137 1.296 87.6417 1.536C87.8817 1.764 88.0017 2.04 88.0017 2.364C88.0017 2.688 87.8817 2.97 87.6417 3.21C87.4137 3.438 87.1377 3.552 86.8137 3.552ZM92.0833 14.658L90.8593 13.578L96.9793 5.496L98.1853 6.576L92.0833 14.658ZM91.5433 15C90.9793 15 90.6973 14.718 90.6973 14.154C90.6973 13.59 90.9793 13.308 91.5433 13.308H97.6813C98.2453 13.308 98.5273 13.59 98.5273 14.154C98.5273 14.718 98.2453 15 97.6813 15H91.5433ZM91.3633 6.846C90.7993 6.846 90.5173 6.564 90.5173 6C90.5173 5.436 90.7993 5.154 91.3633 5.154H97.5013C98.0653 5.154 98.3473 5.436 98.3473 6C98.3473 6.564 98.0653 6.846 97.5013 6.846H91.3633ZM111.145 15C110.761 15 110.479 14.802 110.299 14.406L105.025 2.346C104.857 1.938 104.839 1.602 104.971 1.338C105.103 1.074 105.355 0.942 105.727 0.942C106.147 0.942 106.435 1.128 106.591 1.5L111.217 12.606H111.019L115.735 1.5C115.831 1.284 115.939 1.14 116.059 1.068C116.191 0.983999 116.365 0.942 116.581 0.942C116.941 0.942 117.187 1.074 117.319 1.338C117.463 1.59 117.463 1.872 117.319 2.184L111.991 14.406C111.907 14.598 111.793 14.748 111.649 14.856C111.517 14.952 111.349 15 111.145 15ZM121.753 15C121.225 15 120.757 14.856 120.349 14.568C119.941 14.28 119.623 13.89 119.395 13.398C119.167 12.894 119.053 12.318 119.053 11.67V1.842C119.053 1.578 119.137 1.362 119.305 1.194C119.473 1.026 119.689 0.942 119.953 0.942C120.217 0.942 120.433 1.026 120.601 1.194C120.769 1.362 120.853 1.578 120.853 1.842V11.67C120.853 12.114 120.937 12.48 121.105 12.768C121.273 13.056 121.489 13.2 121.753 13.2H122.203C122.443 13.2 122.635 13.284 122.779 13.452C122.935 13.62 123.013 13.836 123.013 14.1C123.013 14.364 122.899 14.58 122.671 14.748C122.443 14.916 122.149 15 121.789 15H121.753ZM128.369 15.072C127.493 15.072 126.707 14.856 126.011 14.424C125.315 13.98 124.763 13.386 124.355 12.642C123.959 11.886 123.761 11.034 123.761 10.086C123.761 9.138 123.977 8.286 124.409 7.53C124.853 6.774 125.447 6.18 126.191 5.748C126.947 5.304 127.793 5.082 128.729 5.082C129.665 5.082 130.505 5.304 131.249 5.748C131.993 6.18 132.581 6.774 133.013 7.53C133.457 8.286 133.679 9.138 133.679 10.086H132.977C132.977 11.034 132.773 11.886 132.365 12.642C131.969 13.386 131.423 13.98 130.727 14.424C130.031 14.856 129.245 15.072 128.369 15.072ZM128.729 13.452C129.341 13.452 129.887 13.308 130.367 13.02C130.847 12.72 131.225 12.318 131.501 11.814C131.777 11.298 131.915 10.722 131.915 10.086C131.915 9.438 131.777 8.862 131.501 8.358C131.225 7.842 130.847 7.44 130.367 7.152C129.887 6.852 129.341 6.702 128.729 6.702C128.129 6.702 127.583 6.852 127.091 7.152C126.611 7.44 126.227 7.842 125.939 8.358C125.663 8.862 125.525 9.438 125.525 10.086C125.525 10.722 125.663 11.298 125.939 11.814C126.227 12.318 126.611 12.72 127.091 13.02C127.583 13.308 128.129 13.452 128.729 13.452ZM132.761 15.018C132.497 15.018 132.275 14.934 132.095 14.766C131.927 14.586 131.843 14.364 131.843 14.1V11.346L132.185 9.438L133.679 10.086V14.1C133.679 14.364 133.589 14.586 133.409 14.766C133.241 14.934 133.025 15.018 132.761 15.018ZM140.875 15.072C139.939 15.072 139.093 14.856 138.337 14.424C137.593 13.98 136.999 13.38 136.555 12.624C136.123 11.868 135.907 11.016 135.907 10.068C135.907 9.12 136.105 8.274 136.501 7.53C136.909 6.774 137.461 6.18 138.157 5.748C138.853 5.304 139.639 5.082 140.515 5.082C141.223 5.082 141.877 5.232 142.477 5.532C143.077 5.82 143.581 6.216 143.989 6.72V1.86C143.989 1.584 144.073 1.362 144.241 1.194C144.421 1.026 144.643 0.942 144.907 0.942C145.183 0.942 145.405 1.026 145.573 1.194C145.741 1.362 145.825 1.584 145.825 1.86V10.068C145.825 11.016 145.603 11.868 145.159 12.624C144.727 13.38 144.139 13.98 143.395 14.424C142.651 14.856 141.811 15.072 140.875 15.072ZM140.875 13.452C141.487 13.452 142.033 13.308 142.513 13.02C142.993 12.72 143.371 12.312 143.647 11.796C143.923 11.28 144.061 10.704 144.061 10.068C144.061 9.42 143.923 8.844 143.647 8.34C143.371 7.836 142.993 7.44 142.513 7.152C142.033 6.852 141.487 6.702 140.875 6.702C140.275 6.702 139.729 6.852 139.237 7.152C138.757 7.44 138.373 7.836 138.085 8.34C137.809 8.844 137.671 9.42 137.671 10.068C137.671 10.704 137.809 11.28 138.085 11.796C138.373 12.312 138.757 12.72 139.237 13.02C139.729 13.308 140.275 13.452 140.875 13.452ZM150.165 15C149.901 15 149.679 14.916 149.499 14.748C149.331 14.568 149.247 14.346 149.247 14.082V6.072C149.247 5.796 149.331 5.574 149.499 5.406C149.679 5.238 149.901 5.154 150.165 5.154C150.441 5.154 150.663 5.238 150.831 5.406C150.999 5.574 151.083 5.796 151.083 6.072V14.082C151.083 14.346 150.999 14.568 150.831 14.748C150.663 14.916 150.441 15 150.165 15ZM150.165 3.552C149.841 3.552 149.559 3.438 149.319 3.21C149.091 2.97 148.977 2.688 148.977 2.364C148.977 2.04 149.091 1.764 149.319 1.536C149.559 1.296 149.841 1.176 150.165 1.176C150.489 1.176 150.765 1.296 150.993 1.536C151.233 1.764 151.353 2.04 151.353 2.364C151.353 2.688 151.233 2.97 150.993 3.21C150.765 3.438 150.489 3.552 150.165 3.552ZM158.081 15.072C157.241 15.072 156.461 14.946 155.741 14.694C155.033 14.43 154.481 14.1 154.085 13.704C153.905 13.512 153.827 13.296 153.851 13.056C153.887 12.804 154.007 12.6 154.211 12.444C154.451 12.252 154.685 12.174 154.913 12.21C155.153 12.234 155.357 12.336 155.525 12.516C155.729 12.744 156.053 12.96 156.497 13.164C156.953 13.356 157.457 13.452 158.009 13.452C158.705 13.452 159.233 13.338 159.593 13.11C159.965 12.882 160.157 12.588 160.169 12.228C160.181 11.868 160.007 11.556 159.647 11.292C159.299 11.028 158.657 10.812 157.721 10.644C156.509 10.404 155.627 10.044 155.075 9.564C154.535 9.084 154.265 8.496 154.265 7.8C154.265 7.188 154.445 6.684 154.805 6.288C155.165 5.88 155.627 5.58 156.191 5.388C156.755 5.184 157.343 5.082 157.955 5.082C158.747 5.082 159.449 5.208 160.061 5.46C160.673 5.712 161.159 6.06 161.519 6.504C161.687 6.696 161.765 6.9 161.753 7.116C161.741 7.32 161.639 7.494 161.447 7.638C161.255 7.77 161.027 7.812 160.763 7.764C160.499 7.716 160.277 7.608 160.097 7.44C159.797 7.152 159.473 6.954 159.125 6.846C158.777 6.738 158.375 6.684 157.919 6.684C157.391 6.684 156.941 6.774 156.569 6.954C156.209 7.134 156.029 7.398 156.029 7.746C156.029 7.962 156.083 8.16 156.191 8.34C156.311 8.508 156.539 8.664 156.875 8.808C157.211 8.94 157.703 9.072 158.351 9.204C159.251 9.384 159.959 9.612 160.475 9.888C161.003 10.164 161.381 10.488 161.609 10.86C161.837 11.22 161.951 11.64 161.951 12.12C161.951 12.672 161.801 13.17 161.501 13.614C161.213 14.058 160.781 14.412 160.205 14.676C159.641 14.94 158.933 15.072 158.081 15.072ZM166.612 15C166.084 15 165.616 14.856 165.208 14.568C164.8 14.28 164.482 13.89 164.254 13.398C164.026 12.894 163.912 12.318 163.912 11.67V1.842C163.912 1.578 163.996 1.362 164.164 1.194C164.332 1.026 164.548 0.942 164.812 0.942C165.076 0.942 165.292 1.026 165.46 1.194C165.628 1.362 165.712 1.578 165.712 1.842V11.67C165.712 12.114 165.796 12.48 165.964 12.768C166.132 13.056 166.348 13.2 166.612 13.2H167.062C167.302 13.2 167.494 13.284 167.638 13.452C167.794 13.62 167.872 13.836 167.872 14.1C167.872 14.364 167.758 14.58 167.53 14.748C167.302 14.916 167.008 15 166.648 15H166.612ZM173.228 15.072C172.352 15.072 171.566 14.856 170.87 14.424C170.174 13.98 169.622 13.386 169.214 12.642C168.818 11.886 168.62 11.034 168.62 10.086C168.62 9.138 168.836 8.286 169.268 7.53C169.712 6.774 170.306 6.18 171.05 5.748C171.806 5.304 172.652 5.082 173.588 5.082C174.524 5.082 175.364 5.304 176.108 5.748C176.852 6.18 177.44 6.774 177.872 7.53C178.316 8.286 178.538 9.138 178.538 10.086H177.836C177.836 11.034 177.632 11.886 177.224 12.642C176.828 13.386 176.282 13.98 175.586 14.424C174.89 14.856 174.104 15.072 173.228 15.072ZM173.588 13.452C174.2 13.452 174.746 13.308 175.226 13.02C175.706 12.72 176.084 12.318 176.36 11.814C176.636 11.298 176.774 10.722 176.774 10.086C176.774 9.438 176.636 8.862 176.36 8.358C176.084 7.842 175.706 7.44 175.226 7.152C174.746 6.852 174.2 6.702 173.588 6.702C172.988 6.702 172.442 6.852 171.95 7.152C171.47 7.44 171.086 7.842 170.798 8.358C170.522 8.862 170.384 9.438 170.384 10.086C170.384 10.722 170.522 11.298 170.798 11.814C171.086 12.318 171.47 12.72 171.95 13.02C172.442 13.308 172.988 13.452 173.588 13.452ZM177.62 15.018C177.356 15.018 177.134 14.934 176.954 14.766C176.786 14.586 176.702 14.364 176.702 14.1V11.346L177.044 9.438L178.538 10.086V14.1C178.538 14.364 178.448 14.586 178.268 14.766C178.1 14.934 177.884 15.018 177.62 15.018ZM184.055 14.982C183.683 14.982 183.395 14.784 183.191 14.388L179.375 6.342C179.279 6.138 179.267 5.94 179.339 5.748C179.423 5.544 179.579 5.388 179.807 5.28C180.011 5.172 180.215 5.154 180.419 5.226C180.635 5.298 180.797 5.436 180.905 5.64L184.469 13.326H183.605L187.133 5.64C187.241 5.436 187.403 5.298 187.619 5.226C187.847 5.154 188.075 5.172 188.303 5.28C188.519 5.376 188.663 5.526 188.735 5.73C188.807 5.934 188.795 6.138 188.699 6.342L184.883 14.388C184.703 14.784 184.427 14.982 184.055 14.982Z"
              fill="#25282B"/>
    </g>

    <g id="">

    </g>


</svg>

